<svg width="46" height="20" viewBox="0 0 46 20" fill="none" xmlns="http://www.w3.org/2000/svg">
<circle cx="4.29406" cy="9.99999" r="3.52941" fill="#3F5D8D"/>
<path d="M22.7242 7.30956C22.7242 8.87913 21.8982 10.0852 20.7251 10.8287L23.8642 16.0991H20.1303L17.6521 11.6548H15.5373V16.0991H12.1503V5.40956C12.1503 3.50956 12.7451 2.79913 14.7277 2.79913H17.7677C20.626 2.79913 22.7242 4.15391 22.7242 7.1113V7.30956ZM15.5373 6.12V8.86261H17.6851C18.7921 8.86261 19.3703 8.15217 19.3703 7.30956V7.19391C19.3703 6.3513 18.7921 5.64087 17.6851 5.64087H16.0164C15.6364 5.64087 15.5373 5.72348 15.5373 6.12ZM27.8963 6.16956V7.93739H32.4068C33.365 7.93739 33.745 8.73043 33.745 9.3913C33.745 10.0522 33.3815 10.7957 32.4068 10.7957H27.8963V12.7287C27.8963 13.1252 27.9954 13.2078 28.3754 13.2078H32.7207C33.6954 13.2078 34.0589 13.9513 34.0589 14.6287C34.0589 15.3061 33.6789 16.0991 32.7207 16.0991H27.0868C25.1041 16.0991 24.5094 15.3887 24.5094 13.4887V5.40956C24.5094 3.50956 25.1041 2.79913 27.0868 2.79913H32.5554C33.5137 2.79913 33.8937 3.59217 33.8937 4.26956C33.8937 4.94696 33.5302 5.69043 32.5554 5.69043H28.3754C27.9954 5.69043 27.8963 5.77304 27.8963 6.16956ZM38.6538 7.98696V11.1261C38.6538 12.6791 39.7607 13.4557 40.9503 13.4557C41.7103 13.4557 42.2555 13.34 42.7016 13.1417C42.9494 13.0261 43.2468 12.8443 43.5607 12.7948C44.1555 12.6957 44.6512 12.8774 44.9816 13.4226C45.3946 14.1 45.1303 14.8435 44.552 15.3061C43.6433 16.0496 42.2225 16.38 40.9503 16.38C38.092 16.38 35.2503 14.9261 35.2503 11.2748V7.83826C35.2503 4.18696 38.092 2.73304 40.9503 2.73304C42.4207 2.73304 43.5607 3.08 44.2051 3.54261C44.8825 4.02174 45.2129 4.81478 44.8164 5.50869C44.486 6.08696 43.8746 6.31826 43.3129 6.21913C42.9329 6.15304 42.652 5.9713 42.4042 5.87217C42.0077 5.72348 41.6277 5.65739 40.9503 5.65739C39.7607 5.65739 38.6538 6.43391 38.6538 7.98696Z" fill="#3F5D8D"/>
</svg>
