<svg width="46" height="20" viewBox="0 0 46 20" fill="none" xmlns="http://www.w3.org/2000/svg">
<circle cx="4.29412" cy="9.99999" r="3.52941" fill="#4283EB"/>
<path d="M22.724 7.30956C22.724 8.87913 21.8979 10.0852 20.7249 10.8287L23.864 16.0991H20.1301L17.6518 11.6548H15.537V16.0991H12.1501V5.40956C12.1501 3.50956 12.7449 2.79913 14.7275 2.79913H17.7675C20.6257 2.79913 22.724 4.15391 22.724 7.1113V7.30956ZM15.537 6.12V8.86261H17.6849C18.7918 8.86261 19.3701 8.15217 19.3701 7.30956V7.19391C19.3701 6.3513 18.7918 5.64087 17.6849 5.64087H16.0162C15.6362 5.64087 15.537 5.72348 15.537 6.12ZM27.8961 6.16956V7.93739H32.4065C33.3648 7.93739 33.7448 8.73043 33.7448 9.3913C33.7448 10.0522 33.3813 10.7957 32.4065 10.7957H27.8961V12.7287C27.8961 13.1252 27.9952 13.2078 28.3752 13.2078H32.7204C33.6952 13.2078 34.0587 13.9513 34.0587 14.6287C34.0587 15.3061 33.6787 16.0991 32.7204 16.0991H27.0865C25.1039 16.0991 24.5091 15.3887 24.5091 13.4887V5.40956C24.5091 3.50956 25.1039 2.79913 27.0865 2.79913H32.5552C33.5135 2.79913 33.8935 3.59217 33.8935 4.26956C33.8935 4.94696 33.53 5.69043 32.5552 5.69043H28.3752C27.9952 5.69043 27.8961 5.77304 27.8961 6.16956ZM38.6535 7.98696V11.1261C38.6535 12.6791 39.7605 13.4557 40.9501 13.4557C41.7101 13.4557 42.2553 13.34 42.7014 13.1417C42.9492 13.0261 43.2466 12.8443 43.5605 12.7948C44.1553 12.6957 44.6509 12.8774 44.9814 13.4226C45.3944 14.1 45.1301 14.8435 44.5518 15.3061C43.6431 16.0496 42.2222 16.38 40.9501 16.38C38.0918 16.38 35.2501 14.9261 35.2501 11.2748V7.83826C35.2501 4.18696 38.0918 2.73304 40.9501 2.73304C42.4205 2.73304 43.5605 3.08 44.2048 3.54261C44.8822 4.02174 45.2127 4.81478 44.8161 5.50869C44.4857 6.08696 43.8744 6.31826 43.3127 6.21913C42.9327 6.15304 42.6518 5.9713 42.404 5.87217C42.0074 5.72348 41.6274 5.65739 40.9501 5.65739C39.7605 5.65739 38.6535 6.43391 38.6535 7.98696Z" fill="#3F5D8D"/>
</svg>
