<svg width="24" height="24" viewBox="0 0 24 24" fill="none" xmlns="http://www.w3.org/2000/svg">
<rect x="1.19995" y="1.20001" width="21.6" height="21.6" rx="10.8" fill="white"/>
<path d="M11.9918 21.0352C7.04531 21.0352 3.03398 17.0238 3.03398 12.0773C3.03398 7.13086 7.04531 3.11953 11.9918 3.11953C16.9465 3.11953 20.9578 7.13086 20.9578 12.0773C20.9578 17.0238 16.9465 21.0352 11.9918 21.0352ZM11.0977 16.3102C11.5324 16.3102 11.9262 16.0723 12.1887 15.7113L15.9457 10.1496C16.1344 9.88711 16.2 9.63281 16.2 9.40312C16.2 8.77148 15.6422 8.2957 15.0105 8.2957C14.584 8.2957 14.2641 8.51719 13.9852 8.95195L11.0977 13.4883L9.9 12.1266C9.66211 11.8559 9.39141 11.7082 9.03047 11.7082C8.39883 11.7082 7.86562 12.2086 7.86562 12.8484C7.86562 13.1437 7.94766 13.3734 8.20195 13.6687L9.99023 15.7441C10.2937 16.0887 10.6547 16.3102 11.0977 16.3102Z" fill="#4283EB"/>
</svg>
