<svg width="55" height="40" viewBox="0 0 55 40" fill="none" xmlns="http://www.w3.org/2000/svg">
<rect x="0.5" width="54" height="40" rx="12" fill="#E8EFFB"/>
<path d="M20.3779 20.0068C20.3779 19.3179 20.9424 18.7534 21.6396 18.7534H26.2466V14.1465C26.2466 13.4575 26.8027 12.8848 27.5 12.8848C28.1973 12.8848 28.7617 13.4575 28.7617 14.1465V18.7534H33.3687C34.0576 18.7534 34.6221 19.3179 34.6221 20.0068C34.6221 20.7041 34.0576 21.2686 33.3687 21.2686H28.7617V25.8755C28.7617 26.5645 28.1973 27.1372 27.5 27.1372C26.8027 27.1372 26.2466 26.5645 26.2466 25.8755V21.2686H21.6396C20.9424 21.2686 20.3779 20.7041 20.3779 20.0068Z" fill="#3F5D8D"/>
</svg>
