<svg width="49" height="34" viewBox="0 0 49 34" fill="none" xmlns="http://www.w3.org/2000/svg">
<rect x="0.5" width="48" height="34" rx="12" fill="#E8EFFB"/>
<path d="M17.3779 17.0068C17.3779 16.3179 17.9424 15.7534 18.6396 15.7534H23.2466V11.1465C23.2466 10.4575 23.8027 9.88477 24.5 9.88477C25.1973 9.88477 25.7617 10.4575 25.7617 11.1465V15.7534H30.3687C31.0576 15.7534 31.6221 16.3179 31.6221 17.0068C31.6221 17.7041 31.0576 18.2686 30.3687 18.2686H25.7617V22.8755C25.7617 23.5645 25.1973 24.1372 24.5 24.1372C23.8027 24.1372 23.2466 23.5645 23.2466 22.8755V18.2686H18.6396C17.9424 18.2686 17.3779 17.7041 17.3779 17.0068Z" fill="#3F5D8D"/>
</svg>
