<svg width="55" height="40" viewBox="0 0 55 40" fill="none" xmlns="http://www.w3.org/2000/svg">
<rect x="0.5" width="54" height="40" rx="12" fill="#E8EFFB"/>
<circle cx="11.175" cy="20" r="3" fill="#4283EB"/>
<path d="M26.9654 18.1131C26.9654 19.4473 26.2632 20.4724 25.2661 21.1044L27.9344 25.5843H24.7605L22.654 21.8066H20.8564V25.5843H17.9775V16.4981C17.9775 14.8831 18.4831 14.2793 20.1683 14.2793H22.7523C25.1818 14.2793 26.9654 15.4308 26.9654 17.9446V18.1131ZM20.8564 17.102V19.4332H22.6821C23.623 19.4332 24.1145 18.8293 24.1145 18.1131V18.0148C24.1145 17.2986 23.623 16.6947 22.6821 16.6947H21.2637C20.9407 16.6947 20.8564 16.765 20.8564 17.102ZM31.3616 17.1441V18.6468H35.1955C36.01 18.6468 36.333 19.3209 36.333 19.8826C36.333 20.4443 36.0241 21.0763 35.1955 21.0763H31.3616V22.7194C31.3616 23.0564 31.4459 23.1267 31.7689 23.1267H35.4623C36.2909 23.1267 36.5998 23.7586 36.5998 24.3344C36.5998 24.9102 36.2768 25.5843 35.4623 25.5843H30.6735C28.9883 25.5843 28.4827 24.9804 28.4827 23.3654V16.4981C28.4827 14.8831 28.9883 14.2793 30.6735 14.2793H35.3219C36.1364 14.2793 36.4594 14.9533 36.4594 15.5291C36.4594 16.1049 36.1505 16.7369 35.3219 16.7369H31.7689C31.4459 16.7369 31.3616 16.8071 31.3616 17.1441ZM40.5055 18.6889V21.3572C40.5055 22.6773 41.4464 23.3373 42.4575 23.3373C43.1035 23.3373 43.5669 23.239 43.9461 23.0705C44.1568 22.9722 44.4096 22.8177 44.6764 22.7756C45.1819 22.6913 45.6032 22.8458 45.8841 23.3092C46.2352 23.885 46.0105 24.517 45.519 24.9102C44.7466 25.5421 43.5389 25.823 42.4575 25.823C40.028 25.823 37.6125 24.5872 37.6125 21.4836V18.5625C37.6125 15.4589 40.028 14.2231 42.4575 14.2231C43.7074 14.2231 44.6764 14.518 45.2241 14.9112C45.7999 15.3185 46.0807 15.9926 45.7437 16.5824C45.4628 17.0739 44.9432 17.2705 44.4657 17.1863C44.1427 17.1301 43.904 16.9756 43.6933 16.8913C43.3563 16.765 43.0333 16.7088 42.4575 16.7088C41.4464 16.7088 40.5055 17.3688 40.5055 18.6889Z" fill="#3F5D8D"/>
</svg>
