<svg width="54" height="40" viewBox="0 0 54 40" fill="none" xmlns="http://www.w3.org/2000/svg">
<rect width="54" height="40" rx="12" fill="#E8EFFB"/>
<circle cx="10.675" cy="20" r="3" fill="#3F5D8D"/>
<path d="M26.4654 18.1131C26.4654 19.4473 25.7632 20.4724 24.7661 21.1044L27.4344 25.5843H24.2605L22.154 21.8066H20.3564V25.5843H17.4775V16.4981C17.4775 14.8831 17.9831 14.2793 19.6683 14.2793H22.2523C24.6818 14.2793 26.4654 15.4308 26.4654 17.9446V18.1131ZM20.3564 17.102V19.4332H22.1821C23.123 19.4332 23.6145 18.8293 23.6145 18.1131V18.0148C23.6145 17.2986 23.123 16.6947 22.1821 16.6947H20.7637C20.4407 16.6947 20.3564 16.765 20.3564 17.102ZM30.8616 17.1441V18.6468H34.6955C35.51 18.6468 35.833 19.3209 35.833 19.8826C35.833 20.4443 35.5241 21.0763 34.6955 21.0763H30.8616V22.7194C30.8616 23.0564 30.9459 23.1267 31.2689 23.1267H34.9623C35.7909 23.1267 36.0998 23.7586 36.0998 24.3344C36.0998 24.9102 35.7768 25.5843 34.9623 25.5843H30.1735C28.4883 25.5843 27.9827 24.9804 27.9827 23.3654V16.4981C27.9827 14.8831 28.4883 14.2793 30.1735 14.2793H34.8219C35.6364 14.2793 35.9594 14.9533 35.9594 15.5291C35.9594 16.1049 35.6505 16.7369 34.8219 16.7369H31.2689C30.9459 16.7369 30.8616 16.8071 30.8616 17.1441ZM40.0055 18.6889V21.3572C40.0055 22.6773 40.9464 23.3373 41.9575 23.3373C42.6035 23.3373 43.0669 23.239 43.4461 23.0705C43.6568 22.9722 43.9096 22.8177 44.1764 22.7756C44.6819 22.6913 45.1032 22.8458 45.3841 23.3092C45.7352 23.885 45.5105 24.517 45.019 24.9102C44.2466 25.5421 43.0389 25.823 41.9575 25.823C39.528 25.823 37.1125 24.5872 37.1125 21.4836V18.5625C37.1125 15.4589 39.528 14.2231 41.9575 14.2231C43.2074 14.2231 44.1764 14.518 44.7241 14.9112C45.2999 15.3185 45.5807 15.9926 45.2437 16.5824C44.9628 17.0739 44.4432 17.2705 43.9657 17.1863C43.6427 17.1301 43.404 16.9756 43.1933 16.8913C42.8563 16.765 42.5333 16.7088 41.9575 16.7088C40.9464 16.7088 40.0055 17.3688 40.0055 18.6889Z" fill="#3F5D8D"/>
</svg>
